<svg width="20" height="20" viewBox="0 0 20 20" fill="none" xmlns="http://www.w3.org/2000/svg">
<path fill-rule="evenodd" clip-rule="evenodd" d="M0 4.00043C0 2.93956 0.421427 1.92215 1.17157 1.172C1.92172 0.421855 2.93913 0.000427246 4 0.000427246H16C17.0609 0.000427246 18.0783 0.421855 18.8284 1.172C19.5786 1.92215 20 2.93956 20 4.00043V16.0004C20 17.0613 19.5786 18.0787 18.8284 18.8289C18.0783 19.579 17.0609 20.0004 16 20.0004H4C2.93913 20.0004 1.92172 19.579 1.17157 18.8289C0.421427 18.0787 0 17.0613 0 16.0004V4.00043ZM4 2.00043C3.46957 2.00043 2.96086 2.21114 2.58579 2.58621C2.21071 2.96129 2 3.46999 2 4.00043V16.0004C2 16.5309 2.21071 17.0396 2.58579 17.4146C2.96086 17.7897 3.46957 18.0004 4 18.0004H16C16.5304 18.0004 17.0391 17.7897 17.4142 17.4146C17.7893 17.0396 18 16.5309 18 16.0004V4.00043C18 3.46999 17.7893 2.96129 17.4142 2.58621C17.0391 2.21114 16.5304 2.00043 16 2.00043H4ZM10 7.00043C9.20435 7.00043 8.44129 7.3165 7.87868 7.87911C7.31607 8.44172 7 9.20478 7 10.0004C7 10.7961 7.31607 11.5591 7.87868 12.1217C8.44129 12.6844 9.20435 13.0004 10 13.0004C10.7956 13.0004 11.5587 12.6844 12.1213 12.1217C12.6839 11.5591 13 10.7961 13 10.0004C13 9.20478 12.6839 8.44172 12.1213 7.87911C11.5587 7.3165 10.7956 7.00043 10 7.00043ZM5 10.0004C5 8.67435 5.52678 7.40258 6.46447 6.46489C7.40215 5.52721 8.67392 5.00043 10 5.00043C11.3261 5.00043 12.5979 5.52721 13.5355 6.46489C14.4732 7.40258 15 8.67435 15 10.0004C15 11.3265 14.4732 12.5983 13.5355 13.536C12.5979 14.4736 11.3261 15.0004 10 15.0004C8.67392 15.0004 7.40215 14.4736 6.46447 13.536C5.52678 12.5983 5 11.3265 5 10.0004ZM15.5 6.00043C15.8978 6.00043 16.2794 5.84239 16.5607 5.56109C16.842 5.27978 17 4.89825 17 4.50043C17 4.1026 16.842 3.72107 16.5607 3.43977C16.2794 3.15846 15.8978 3.00043 15.5 3.00043C15.1022 3.00043 14.7206 3.15846 14.4393 3.43977C14.158 3.72107 14 4.1026 14 4.50043C14 4.89825 14.158 5.27978 14.4393 5.56109C14.7206 5.84239 15.1022 6.00043 15.5 6.00043Z" fill="black"/>
</svg>
