<svg width="12" height="18" viewBox="0 0 12 18" fill="none" xmlns="http://www.w3.org/2000/svg">
<path fill-rule="evenodd" clip-rule="evenodd" d="M9.00096 2.00048C8.73574 2.00048 8.48139 2.10584 8.29386 2.29338C8.10632 2.48091 8.00096 2.73527 8.00096 3.00048C8.00096 3.2657 8.10632 3.52005 8.29386 3.70759C8.48139 3.89513 8.73574 4.00048 9.00096 4.00048C9.26618 4.00048 9.52053 3.89513 9.70807 3.70759C9.89561 3.52005 10.001 3.2657 10.001 3.00048C10.001 2.73527 9.89561 2.48091 9.70807 2.29338C9.52053 2.10584 9.26618 2.00048 9.00096 2.00048ZM6.00096 3.00048C6.00095 2.35009 6.2123 1.71731 6.60318 1.19747C6.99406 0.67764 7.54328 0.298913 8.16811 0.118352C8.79294 -0.062208 9.45952 -0.0348211 10.0674 0.196387C10.6753 0.427596 11.1916 0.850101 11.5386 1.40025C11.8855 1.95039 12.0442 2.59838 11.9908 3.24658C11.9375 3.89478 11.6749 4.50808 11.2427 4.99409C10.8105 5.48009 10.232 5.81246 9.59447 5.94113C8.95693 6.0698 8.29485 5.9878 7.70796 5.70748L5.70796 7.70748C5.89596 8.09848 6.00096 8.53748 6.00096 9.00048C6.00096 9.46348 5.89596 9.90248 5.70796 10.2935L7.70796 12.2935C8.34655 11.9885 9.07242 11.919 9.75727 12.0974C10.4421 12.2758 11.0418 12.6906 11.4504 13.2684C11.859 13.8462 12.0502 14.5499 11.9902 15.2551C11.9301 15.9602 11.6227 16.6214 11.1223 17.1218C10.6219 17.6223 9.96068 17.9297 9.25553 17.9897C8.55038 18.0497 7.84671 17.8586 7.26888 17.45C6.69106 17.0414 6.27629 16.4416 6.09789 15.7568C5.91948 15.0719 5.98893 14.3461 6.29396 13.7075L4.29396 11.7075C3.83667 11.9257 3.33155 12.0246 2.82572 11.9948C2.3199 11.9651 1.82986 11.8077 1.4013 11.5373C0.972745 11.267 0.619645 10.8925 0.374938 10.4488C0.130232 10.0051 0.00189209 9.50668 0.00189209 8.99998C0.00189209 8.49329 0.130232 7.99484 0.374938 7.55115C0.619645 7.10746 0.972745 6.73298 1.4013 6.46264C1.82986 6.1923 2.3199 6.03491 2.82572 6.00516C3.33155 5.97541 3.83667 6.07425 4.29396 6.29248L6.29396 4.29348C6.10077 3.88984 6.00064 3.44798 6.00096 3.00048ZM3.00096 8.00048C2.73575 8.00048 2.48139 8.10584 2.29386 8.29338C2.10632 8.48091 2.00096 8.73527 2.00096 9.00048C2.00096 9.2657 2.10632 9.52005 2.29386 9.70759C2.48139 9.89513 2.73575 10.0005 3.00096 10.0005C3.26618 10.0005 3.52053 9.89513 3.70807 9.70759C3.8956 9.52005 4.00096 9.2657 4.00096 9.00048C4.00096 8.73527 3.8956 8.48091 3.70807 8.29338C3.52053 8.10584 3.26618 8.00048 3.00096 8.00048ZM9.00096 14.0005C8.8696 14.0002 8.73949 14.0259 8.61813 14.0762C8.49678 14.1265 8.3866 14.2004 8.29396 14.2935C8.13039 14.4571 8.02862 14.6724 8.00598 14.9026C7.98334 15.1329 8.04123 15.3638 8.1698 15.5562C8.29837 15.7485 8.48965 15.8904 8.71106 15.9575C8.93247 16.0246 9.1703 16.0129 9.38403 15.9243C9.59776 15.8357 9.77416 15.6758 9.88319 15.4717C9.99221 15.2677 10.0271 15.0321 9.98192 14.8052C9.93674 14.5783 9.81428 14.3741 9.63541 14.2273C9.45654 14.0806 9.23232 14.0004 9.00096 14.0005Z" fill="black"/>
</svg>
