<svg width="20" height="20" viewBox="0 0 20 20" fill="none" xmlns="http://www.w3.org/2000/svg">
<path d="M4.00913 14.1357L2.1421 2.00002H1C0.447715 2.00002 0 1.5523 0 1.00002C0 0.44773 0.447715 1.52593e-05 1 1.52593e-05H2.9847C3.0806 -0.00157508 3.17434 0.0106786 3.26367 0.0351428C3.40561 0.0738391 3.53497 0.143016 3.64429 0.235207C3.76213 0.334387 3.85751 0.46092 3.91981 0.606996C3.95413 0.687212 3.97826 0.772825 3.99058 0.862207L4.31948 3.00002H12V5.00002H4.62717L5.85794 13H15.256L16.756 8.00002H18.844L16.9578 14.2874C16.8309 14.7103 16.4416 15 16 15H5.01578C4.92133 15.0016 4.82899 14.9898 4.74088 14.9661C4.59074 14.926 4.45453 14.8517 4.34104 14.7522C4.2371 14.6612 4.15157 14.5486 4.0921 14.4198C4.05113 14.3313 4.02271 14.2359 4.00913 14.1357Z" fill="#0D0D0D"/>
<path d="M8 18C8 19.1046 7.10457 20 6 20C4.89543 20 4 19.1046 4 18C4 16.8954 4.89543 16 6 16C7.10457 16 8 16.8954 8 18Z" fill="#0D0D0D"/>
<path d="M17 18C17 19.1046 16.1046 20 15 20C13.8954 20 13 19.1046 13 18C13 16.8954 13.8954 16 15 16C16.1046 16 17 16.8954 17 18Z" fill="#0D0D0D"/>
<path d="M17 1.52593e-05C17.5523 1.52593e-05 18 0.44773 18 1.00002V2.00002H19C19.5523 2.00002 20 2.44773 20 3.00002C20 3.5523 19.5523 4.00002 19 4.00002H18V5.00002C18 5.5523 17.5523 6.00002 17 6.00002C16.4477 6.00002 16 5.5523 16 5.00002V4.00002H15C14.4477 4.00002 14 3.5523 14 3.00002C14 2.44773 14.4477 2.00002 15 2.00002H16V1.00002C16 0.44773 16.4477 1.52593e-05 17 1.52593e-05Z" fill="#0D0D0D"/>
</svg>
